<svg width="56" height="56" viewBox="0 0 56 56" fill="none" xmlns="http://www.w3.org/2000/svg">
<g clip-path="url(#clip0_689_25773)">
<path d="M4 28C4 14.7452 14.7452 4 28 4C41.2548 4 52 14.7452 52 28C52 41.2548 41.2548 52 28 52C14.7452 52 4 41.2548 4 28Z" fill="#12B76A"/>
<g clip-path="url(#clip1_689_25773)">
<path d="M22.8152 32.1076L24.1911 30.8566L22.8152 29.6055V32.1076Z" fill="white"/>
<path d="M22.8152 26.3928L24.1911 25.1417L22.8152 23.8906V26.3928Z" fill="white"/>
<path d="M22.3031 18.0391C18.8276 18.0391 16 20.8666 16 24.3422V31.6579C16 35.1335 18.8276 37.9611 22.3031 37.9611C25.7787 37.9611 28.6063 35.1335 28.6063 31.6579V24.3422C28.6062 20.8666 25.7787 18.0391 22.3031 18.0391ZM25.7261 30.3324C25.8742 30.4672 25.9587 30.6581 25.9587 30.8584C25.9587 31.0587 25.8743 31.2496 25.7261 31.3844L22.5826 34.2427C22.4491 34.3641 22.2778 34.4276 22.1042 34.4276C22.0071 34.4276 21.9091 34.4077 21.8168 34.3669C21.5595 34.253 21.3935 33.9981 21.3935 33.7167V29.737L20.1023 31.05C19.9632 31.1915 19.7793 31.2625 19.5954 31.2625C19.4155 31.2625 19.2355 31.1946 19.097 31.0584C18.8171 30.7831 18.8133 30.333 19.0886 30.0531L21.1073 28.0001L19.0885 25.9471C18.8132 25.6671 18.817 25.217 19.0969 24.9418C19.3769 24.6665 19.827 24.6703 20.1022 24.9502L21.3934 26.2632V22.2835C21.3934 22.002 21.5593 21.7472 21.8167 21.6333C22.074 21.5195 22.3743 21.5682 22.5826 21.7575L25.726 24.6158C25.8742 24.7506 25.9587 24.9415 25.9587 25.1418C25.9587 25.3421 25.8742 25.533 25.726 25.6678L23.161 28.0001L25.7261 30.3324Z" fill="white"/>
<path d="M35.6549 18.2475C35.3515 17.9983 34.9035 18.0423 34.6544 18.3456C34.4051 18.649 34.4491 19.097 34.7525 19.3462C37.3524 21.4818 38.8436 24.6284 38.8436 27.9792C38.8436 31.3541 37.3344 34.5152 34.7031 36.6519C34.3983 36.8994 34.3519 37.3471 34.5993 37.6519C34.7399 37.825 34.9448 37.9147 35.1516 37.9147C35.3091 37.9147 35.4676 37.8626 35.5993 37.7557C38.5646 35.3478 40.2654 31.7844 40.2654 27.9792C40.2654 24.2013 38.5849 20.6543 35.6549 18.2475Z" fill="white"/>
<path d="M33.4353 20.9546C33.1319 20.7053 32.6839 20.7493 32.4348 21.0527C32.1856 21.356 32.2295 21.804 32.5329 22.0532C34.3177 23.5193 35.3414 25.6792 35.3414 27.9792C35.3414 30.2957 34.3054 32.4656 32.499 33.9324C32.1942 34.1799 32.1478 34.6276 32.3953 34.9324C32.5358 35.1054 32.7408 35.1952 32.9475 35.1952C33.105 35.1952 33.2635 35.1431 33.3952 35.0361C35.5356 33.2981 36.7631 30.726 36.7631 27.9792C36.7632 25.2521 35.5502 22.6917 33.4353 20.9546Z" fill="white"/>
<path d="M31.217 23.6614C30.9135 23.4123 30.4656 23.4564 30.2165 23.7599C29.9673 24.0633 30.0114 24.5113 30.3149 24.7604C31.2836 25.5556 31.8391 26.7293 31.8391 27.9808C31.8391 29.2413 31.2769 30.4205 30.2964 31.216C29.9915 31.4634 29.945 31.9111 30.1924 32.216C30.3329 32.3891 30.538 32.479 30.7448 32.479C30.9022 32.479 31.0606 32.427 31.1923 32.3201C32.5069 31.2533 33.2609 29.6717 33.2609 27.9808C33.2609 26.3021 32.5159 24.7277 31.217 23.6614Z" fill="white"/>
</g>
<path d="M28 48C16.9543 48 8 39.0457 8 28H0C0 43.464 12.536 56 28 56V48ZM48 28C48 39.0457 39.0457 48 28 48V56C43.464 56 56 43.464 56 28H48ZM28 8C39.0457 8 48 16.9543 48 28H56C56 12.536 43.464 0 28 0V8ZM28 0C12.536 0 0 12.536 0 28H8C8 16.9543 16.9543 8 28 8V0Z" fill="#039855"/>
</g>
<defs>
<clipPath id="clip0_689_25773">
<rect width="56" height="56" fill="white"/>
</clipPath>
<clipPath id="clip1_689_25773">
<rect width="24.2654" height="20" fill="white" transform="translate(16 18)"/>
</clipPath>
</defs>
</svg>
