<svg width="15" height="15" viewBox="0 0 15 15" fill="none" xmlns="http://www.w3.org/2000/svg">
<path d="M5.55992 5.33317C5.71665 4.88762 6.02602 4.51191 6.43322 4.27259C6.84042 4.03328 7.31918 3.9458 7.7847 4.02565C8.25022 4.10549 8.67246 4.34752 8.97664 4.70886C9.28081 5.07019 9.44729 5.52752 9.44659 5.99984C9.44659 7.33317 7.44659 7.99984 7.44659 7.99984M7.49992 10.6665H7.50659M14.1666 7.33317C14.1666 11.0151 11.1818 13.9998 7.49992 13.9998C3.81802 13.9998 0.833252 11.0151 0.833252 7.33317C0.833252 3.65127 3.81802 0.666504 7.49992 0.666504C11.1818 0.666504 14.1666 3.65127 14.1666 7.33317Z" stroke="#98A2B3" stroke-width="1.33333" stroke-linecap="round" stroke-linejoin="round"/>
</svg>
