<svg width="56" height="56" viewBox="0 0 56 56" fill="none" xmlns="http://www.w3.org/2000/svg">
<path d="M4 28C4 14.7452 14.7452 4 28 4C41.2548 4 52 14.7452 52 28C52 41.2548 41.2548 52 28 52C14.7452 52 4 41.2548 4 28Z" fill="#12B76A"/>
<path d="M38 27.0801V28.0001C37.9988 30.1565 37.3005 32.2548 36.0093 33.9819C34.7182 35.7091 32.9033 36.9726 30.8354 37.584C28.7674 38.1954 26.5573 38.122 24.5345 37.3747C22.5117 36.6274 20.7847 35.2462 19.611 33.4372C18.4373 31.6281 17.8798 29.4882 18.0217 27.3364C18.1636 25.1847 18.9972 23.1364 20.3983 21.4972C21.7994 19.8579 23.6928 18.7155 25.7962 18.2403C27.8996 17.765 30.1003 17.9824 32.07 18.8601M38 20.0001L28 30.0101L25 27.0101" stroke="white" stroke-width="2" stroke-linecap="round" stroke-linejoin="round"/>
<path d="M28 48C16.9543 48 8 39.0457 8 28H0C0 43.464 12.536 56 28 56V48ZM48 28C48 39.0457 39.0457 48 28 48V56C43.464 56 56 43.464 56 28H48ZM28 8C39.0457 8 48 16.9543 48 28H56C56 12.536 43.464 0 28 0V8ZM28 0C12.536 0 0 12.536 0 28H8C8 16.9543 16.9543 8 28 8V0Z" fill="#039855"/>
</svg>
