<svg width="14" height="14" viewBox="0 0 14 14" fill="none" xmlns="http://www.w3.org/2000/svg">
<path d="M2 7C2 4.23858 4.23858 2 7 2C9.76142 2 12 4.23858 12 7C12 9.76142 9.76142 12 7 12C4.23858 12 2 9.76142 2 7Z" fill="#12B76A"/>
<path d="M7 10.5C5.067 10.5 3.5 8.933 3.5 7H0.5C0.5 10.5899 3.41015 13.5 7 13.5V10.5ZM10.5 7C10.5 8.933 8.933 10.5 7 10.5V13.5C10.5899 13.5 13.5 10.5899 13.5 7H10.5ZM7 3.5C8.933 3.5 10.5 5.067 10.5 7H13.5C13.5 3.41015 10.5899 0.5 7 0.5V3.5ZM7 0.5C3.41015 0.5 0.5 3.41015 0.5 7H3.5C3.5 5.067 5.067 3.5 7 3.5V0.5Z" fill="white"/>
</svg>
